# xmcd
#
# Track frame offsets:
#	150
#	17020
#	31820
#	51718
#	62623
#	78770
#	97086
#	116761
#	135048
#	151419
#	164104
#	180696
#	194225
#	209746
#
# Disc length: 3013
#
# Revision: 1
# Processed by: cddbd v1.5.1PL0 Copyright (c) Steve Scherf et al.
# Submitted via: CD-Transfer v1.0
# Normalized: r0:TDELIM( - )
#
DISCID=c90bc30e
DTITLE=Dicembre 2004 - Only For Radio
DYEAR=04
DGENRE=
TTITLE0=Usher and Alicia Keys - My Boo
TTITLE1=Eamon - I Love Them O`s
TTITLE2=Outkast - Prototype
TTITLE3=Westlife - Ain`t That A Kikk In The Head
TTITLE4=Faithless - Miss U Less, See U More
TTITLE5=B.e.d. Feat. Chloe Myers - Lay Me Down
TTITLE6=Sarah Mclachlan - World On Fire
TTITLE7=Antonello Venditi - Addio Mia Bella, Addio
TTITLE8=Fiorello - A Muso Duro
TTITLE9=Pino Daniele - Ariverrá L`aurora
TTITLE10=Articolo 31 - Nato Sbalgliata
TTITLE11=Samuele Bersani - Binario 3
TTITLE12=Paolo Meneguzzzi - Una Regola D´amore
TTITLE13=Natasha Bedingfield - Unwritten
EXTD=
EXTT0=
EXTT1=
EXTT2=
EXTT3=
EXTT4=
EXTT5=
EXTT6=
EXTT7=
EXTT8=
EXTT9=
EXTT10=
EXTT11=
EXTT12=
EXTT13=
PLAYORDER=
